<?xml version="1.0" encoding="utf-8"?>
<!-- Generator: Adobe Illustrator 19.2.1, SVG Export Plug-In . SVG Version: 6.00 Build 0)  -->
<svg version="1.1" id="Capa_1" xmlns="http://www.w3.org/2000/svg" xmlns:xlink="http://www.w3.org/1999/xlink" x="0px" y="0px"
	 viewBox="0 0 400 800" style="enable-background:new 0 0 400 800;" xml:space="preserve">
<style type="text/css">
	.st0{fill:#000000;}
</style>
<g>
	<g>
		<path class="st0" d="M35.4,104.9h332c8.6,0,15.6-7,15.6-15.6s-7-15.6-15.6-15.6h-332c-8.6,0-15.6,7-15.6,15.6
			S26.8,104.9,35.4,104.9z"/>
		<path class="st0" d="M35.4,221.6h332c8.6,0,15.6-7,15.6-15.6c0-8.6-7-15.6-15.6-15.6h-332c-8.6,0-15.6,7-15.6,15.6
			C19.8,214.7,26.8,221.6,35.4,221.6z"/>
		<path class="st0" d="M35.4,338.4h332c8.6,0,15.6-7,15.6-15.6c0-8.6-7-15.6-15.6-15.6h-332c-8.6,0-15.6,7-15.6,15.6
			C19.8,331.4,26.8,338.4,35.4,338.4z"/>
	</g>
</g>
<g>
	<g>
		<path class="st0" d="M74.9,463.1l234.7,234.8c6,6,15.9,6,22,0c6-6,6-15.9,0-22L96.8,441.2c-6-6-15.9-6-22,0S68.8,457.1,74.9,463.1
			z"/>
		<path class="st0" d="M313.2,445.7L78.5,680.4c-6,6-6,15.9,0,22c6,6,15.9,6,22,0l234.8-234.7c6-6,6-15.9,0-22
			S319.3,439.7,313.2,445.7z"/>
	</g>
</g>
</svg>
