<svg version="1.1" id="Layer_1" xmlns="http://www.w3.org/2000/svg" xmlns:xlink="http://www.w3.org/1999/xlink" x="0px" y="0px" viewBox="0 688.4 595.3 130.5" enable-background="new 0 688.4 595.3 130.5" xml:space="preserve"><g id="Layer_2"><g id="Layer_1-2"><g id="Layer_2-2"><g id="Layer_1-2-2"><polyline points="317.9,719.7 304.2,719.7 304.2,745.7 278.5,745.7 278.5,759.8 304.2,759.8 304.2,786 317.9,786 317.9,759.8 343.5,759.8 343.5,745.7 317.9,745.7 317.9,719.7"/><path d="M348.6,766.2h4.4c0,2.4,0.1,4.7,0.4,7c0.3,1.7,0.7,3.5,1.2,5.1c0.5,1.6,1.5,3.1,2.7,4.3c1.2,1.1,2.5,2,4,2.7 c1.5,0.7,2.9,1.1,4.4,1.2c2.3,0.3,4.5,0.4,6.8,0.3c4.5,0.1,8.8-1.3,12.2-4.1c3.2-2.9,5.1-7,4.8-11.3c0-2-0.5-4-1.5-5.7 c-1.1-1.7-2.5-3.1-4.3-3.9c-3.9-1.6-8-2.8-12.1-3.6c-4-0.9-8.1-2-12-3.3c-2.4-0.9-4.7-2.3-6.5-3.9c-1.7-1.6-3.1-3.6-3.9-5.9 c-0.9-2.4-1.5-5.1-1.5-7.7c0-4,1.1-7.8,3.1-11.2c2.3-3.6,5.6-6.5,9.6-8.2c4.4-2.1,9.3-3.2,14.2-3.2c3.6,0,7.2,0.5,10.6,1.3 c3.5,0.7,6.6,1.7,9.8,3.3c-0.4,5.7-0.5,11.4-0.8,17.3h-4.1c-0.1-2.5-0.4-4.9-0.8-7.3c-0.3-1.1-0.7-2.1-1.3-3.2 c-0.8-1.2-1.7-2.1-2.8-2.9c-1.6-1.2-3.3-2.1-5.1-2.8c-2.4-0.9-5.1-1.3-7.7-1.2c-3.9-0.1-7.6,1.2-10.4,4c-2.5,2.4-4,5.9-3.9,9.3 c0,1.7,0.4,3.6,1.2,5.2c0.8,1.5,1.9,2.7,3.3,3.6c1.6,1.1,3.5,1.9,5.3,2.4L380,747c4.3,1.1,8.5,2.4,12.5,4.1 c2.4,1.2,4.3,3.2,5.6,5.5c1.5,2.8,2.3,5.9,2.1,8.9c0,6.9-3.1,13.4-8.2,18.1c-5.5,5.2-12.8,7.7-21.8,7.7 c-5.6-0.1-11.3-0.8-16.8-2c-2.1-0.3-4.3-0.8-6.2-1.6c-0.3-0.1-0.3-0.5-0.3-0.8c0-0.4,0-0.9,0.1-1.3c0.4-2.1,0.7-4.3,0.9-6.4 C348.3,777.1,348.4,772.7,348.6,766.2"/><path d="M416.9,748.1c0,6.5,1.1,12.9,3.1,19c2,6.5,4.8,11.2,8.6,14.1c3.5,2.8,7.7,4.4,12.2,4.4c5.6,0,10.8-2.5,14.1-7 c3.7-4.7,5.7-11.8,5.7-21.5c0.1-7.2-0.9-14.2-3.3-20.9c-2.3-5.9-5.1-10-8.6-12.4c-3.3-2.4-7.3-3.6-11.4-3.6 c-5.6-0.1-11,2.4-14.5,6.8C418.8,731.4,417,738.4,416.9,748.1L416.9,748.1z M403.2,753.7c0-11.4,3.5-20.6,10.4-27.9 c6.9-7.2,15.7-10.8,26.5-10.8c10.1,0,18.5,3.3,24.7,10.1c6.2,6.8,9.6,15.4,9.6,25.9c0.1,7-1.6,14.1-4.9,20.3 c-3.2,6-8,11-14,14.5s-12.9,5.3-19.8,5.2c-4.9,0.1-9.7-0.8-14.2-2.9c-3.7-1.7-6.9-4.3-9.6-7.4c-2.3-2.8-4.1-5.9-5.5-9.2 C404.4,765.8,403.2,759.8,403.2,753.7L403.2,753.7z"/><path d="M555.5,785l-0.3,6.2c-6.4-0.4-10.9-0.7-14.2-0.7c-3.6,0-7.4,0.3-11.2,0.5c0.3-4.1,0.8-10.6,0.9-15.8 c-3.7,3.2-7.2,6.5-10.5,10.1c-0.8,0.8-1.7,1.6-2.7,2.1c-2,1.2-4.1,2.1-6.2,2.7c-2.4,0.5-4.9,0.8-7.4,0.8 c-3.3,0.1-6.6-0.4-9.8-1.6c-5.1-2.1-8.8-6.5-10.1-11.8c-0.8-3.2-1.2-6.5-1.2-9.8c0-1.9,0-3.5,0.1-5.1c0.1-1.6,0.1-3.2,0.1-4.8 v-13.3c0-1.3-0.1-4.8-0.3-10.1c0-2.3-0.1-4.5-0.7-6.6c-0.1-0.5-0.5-0.9-0.9-1.2c-1.2-0.7-2.5-0.9-3.9-0.8h-6.4v-4.5 c10.5-1.2,18.1-3.2,22.7-6c0.5-0.4,1.2-0.7,1.9-0.7c0.3,0,0.7,0.1,0.8,0.4c0.3,0.4,0.4,0.8,0.3,1.2v1.6 c-0.1,1.6-0.4,4.8-0.5,9.6c-0.3,8.6-0.4,14.4-0.4,17.3v15.2c-0.1,4.5,0.3,8.9,1.2,13.3c0.8,2.5,2.4,4.7,4.7,6 c2.5,1.6,5.5,2.4,8.4,2.4c4.8,0,9.6-1.7,13.2-4.9c1.6-1.5,2.9-3.1,4.1-4.8c0.8-1.1,1.6-2.3,2.1-3.5c0.4-1.2,0.7-2.3,0.7-3.6 c0.3-4.5,0.4-9,0.4-13.6v-6.6c0-1.3-0.1-4.8-0.3-10.1c0-2.3-0.1-4.5-0.7-6.6c-0.1-0.5-0.5-0.9-0.9-1.2c-1.2-0.7-2.5-0.9-3.9-0.8 h-6.4v-4.5c10.5-1.2,18-3.2,22.7-6c0.5-0.4,1.2-0.7,1.9-0.7c0.3,0,0.7,0.1,0.8,0.4c0.3,0.4,0.4,0.8,0.3,1.2v1.6 c-0.1,1.6-0.3,4.9-0.5,9.8c-0.3,8.4-0.4,14.1-0.4,17v10.6l0.1,10.8c0.1,6.2,0.3,10,0.4,11c0,1.9,0.3,3.9,0.8,5.7 c0.3,0.4,0.5,0.8,0.9,1.2c0.5,0.4,1.1,0.7,1.7,0.8L555.5,785"/><path d="M558.5,791.1v-6l6.5,0.4c0.8,0,1.6-0.1,2.3-0.5c0.5-0.3,0.9-0.7,1.2-1.2c0.7-0.9,1.1-2,0.9-3.2c0-0.5,0.1-7.2,0.5-19.7 v-28.3c0-7.7-0.1-15.6-0.4-23.5c0-3.1-0.1-6.1-0.8-9.2c-0.3-0.4-0.7-0.8-1.1-0.9c-0.7-0.3-3.9-0.5-9.6-0.5v-4 c10.4-1.3,17.7-2.9,21.7-4.8c0.4-0.3,0.9-0.4,1.3-0.4c0.3,0,0.5,0.1,0.8,0.3c0.1,0.3,0.3,0.5,0.3,0.8c0,0.4,0,0.9-0.1,1.3v2.3 c-0.3,8.1-0.4,15.2-0.4,20.9l-0.1,10.6v35.4c0.1,11.8,0.3,18.2,0.4,19.1c-0.1,1.2,0.1,2.3,0.8,3.3c0.1,0.4,0.5,0.8,0.8,1.1 c0.5,0.4,1.1,0.5,1.6,0.7l7.7,0.3v5.6c-6.4-0.4-11.8-0.5-16.6-0.5C571.9,790.5,566,790.7,558.5,791.1"/><path d="M107,778.7c-13.3,0-19.1-13-19.1-25.7c0-12.7,5.9-25.5,19.1-25.5s19.1,13,19.1,25.5C126.1,765.5,120.3,778.7,107,778.7z M107,791.2c21.7,0,34-16,34-38.2c0-22.2-12.4-38-34-38s-34,16-34,38C72.9,775.1,85.3,791.2,107,791.2z"/><path d="M52.9,753.2c0,12.6-5.1,25.5-18.6,25.5c-12,0-18.9-10.9-18.9-25.5c0-15.4,6.4-25.7,18.9-25.7 C46.5,727.5,52.9,740,52.9,753.2z M1,791.2h14.1v-12h0.3c4.4,9.6,14.2,12,23.4,12c19.9,0,29.1-18.3,29.1-37.8 c0-21.1-10.2-38.6-31.6-38.6c-8.2,0.1-15.8,4.4-20.1,11.3h-0.3V689H1v100l0,0V791.2z"/><path d="M52.9,753.2c0,12.6-5.1,25.5-18.6,25.5c-12,0-18.9-10.9-18.9-25.5c0-15.4,6.4-25.7,18.9-25.7 C46.5,727.5,52.9,740,52.9,753.2z M1,791.2h14.1v-12h0.3c4.4,9.6,14.2,12,23.4,12c19.9,0,29.1-18.3,29.1-37.8 c0-21.1-10.2-38.6-31.6-38.6c-8.2,0.1-15.8,4.4-20.1,11.3h-0.3V689H1v100l0,0V791.2z"/><path d="M159.6,753.8c0-13,4.9-26.2,18.9-26.2c11.4,0,18.6,9.6,18.6,25.5c0,12.6-5.6,25.7-18.9,25.7 C165.3,778.7,159.6,766.3,159.6,753.8L159.6,753.8z M211.6,689.4h-14.9v37h-0.3c-4.5-8-14-11.3-22.5-11.3 c-14.8,0-29.3,11.4-29.3,37.8c0,21.7,10.4,38.7,31.6,38.7c8.5,0,17-3.5,20.9-11.7h0.3v11.7h14.1L211.6,689.4L211.6,689.4z"/><path d="M240.3,788.5l-1.6,5.6c-1.9,6.1-3.6,10.1-10.5,10.1c-2.4-0.1-4.8-0.4-7-0.9v13.6c3.5,0.5,6.9,0.8,10.4,0.8 c15.6,0,19-11.7,23.9-24.7l26.9-78h-15.7L249,770.6h-0.3l-18.1-55.7H214L240.3,788.5"/></g></g></g></g></svg>